# xmcd CD database file
#
# Track frame offsets:
#	150
#	15893
#	36173
#	49124
#	60991
#	72694
#	86019
#	98560
#	115870
#	138864
#
# Disc length: 2059 seconds
#
# Revision: 0
# Processed by: cddbd v1.5.1PL0 Copyright (c) Steve Scherf et al.
# Submitted via: CDex 1.51
#
DISCID=7908090a
DTITLE=Charlie Parker - Masters of Jazz
DYEAR=2004
DGENRE=Jazz
TTITLE0=Barbados
TTITLE1=Bebop
TTITLE2=Bird Feathers
TTITLE3=Bongo Bop
TTITLE4=Carvin' the Bird
TTITLE5=Charles' Wig
TTITLE6=Charlie's Theme (Cool Blues)
TTITLE7=Dizzy Atmosphere
TTITLE8=Groovin' High
TTITLE9=Hot House
EXTD=YEAR: 2004
EXTT0=
EXTT1=
EXTT2=
EXTT3=
EXTT4=
EXTT5=
EXTT6=
EXTT7=
EXTT8=
EXTT9=
PLAYORDER=
